<?xml version="1.0" standalone="no"?>
<!DOCTYPE svg PUBLIC "-//W3C//DTD SVG 20010904//EN"
 "http://www.w3.org/TR/2001/REC-SVG-20010904/DTD/svg10.dtd">
<svg version="1.0" xmlns="http://www.w3.org/2000/svg"
 width="1024.000000pt" height="1024.000000pt" viewBox="0 0 1024.000000 1024.000000"
 preserveAspectRatio="xMidYMid meet">
<metadata>
Created by potrace 1.14, written by Peter Selinger 2001-2017
</metadata>
<g transform="translate(0.000000,1024.000000) scale(0.100000,-0.100000)"
fill="#000000" stroke="none">
<path d="M1759 10236 c-2 -2 -31 -7 -64 -10 -98 -9 -274 -48 -370 -81 -22 -8
-60 -22 -85 -30 -78 -28 -242 -110 -330 -165 -239 -149 -443 -350 -603 -592
-85 -129 -205 -392 -232 -508 -2 -8 -8 -30 -14 -47 -5 -18 -8 -33 -5 -33 3 0
0 -8 -5 -18 -5 -10 -12 -36 -15 -58 -4 -22 -9 -51 -11 -64 -3 -14 -8 -54 -13
-90 -10 -87 -9 -6767 1 -6850 34 -282 142 -576 301 -819 53 -81 50 -77 132
-176 303 -369 768 -624 1244 -682 85 -10 6775 -10 6860 0 548 67 1061 385
1371 849 50 75 138 241 169 318 12 30 28 69 35 85 16 37 72 237 80 285 34 200
34 145 32 3610 -2 3175 -3 3390 -20 3471 -14 71 -34 153 -61 249 -19 69 -76
209 -121 298 -274 546 -792 931 -1390 1033 -33 6 -73 13 -90 17 -32 7 -6789
15 -6796 8z"/>
</g>
</svg>
